<?xml version="1.0" encoding="UTF-8"?>
<svg width="172px" height="50px" viewBox="0 0 172 50" version="1.1" xmlns="http://www.w3.org/2000/svg" xmlns:xlink="http://www.w3.org/1999/xlink">
    <!-- Generator: Sketch 42 (36781) - http://www.bohemiancoding.com/sketch -->
    <title>Playstore</title>
    <desc>Created with Sketch.</desc>
    <defs>
        <linearGradient x1="50%" y1="0%" x2="50%" y2="38.9125982%" id="linearGradient-1">
            <stop stop-color="#FBDA09" offset="0%"></stop>
            <stop stop-color="#FFBC00" offset="100%"></stop>
        </linearGradient>
        <path d="M28.3535611,14.6888375 C30.123413,15.6954755 30.1238182,17.3273514 28.3535611,18.3342491 L3.2278037,32.6254319 C1.45795179,33.6320992 0.0232033375,32.7987884 0.0232033375,30.7631031 L0.0232033375,2.26045142 C0.0232033375,0.225248364 1.45754661,-0.608798797 3.2278037,0.398069674 L28.3535611,14.6888375 Z" id="path-2"></path>
        <linearGradient x1="0%" y1="58.4755255%" x2="69.3064856%" y2="39.0830098%" id="linearGradient-4">
            <stop stop-color="#01E2FF" offset="0%"></stop>
            <stop stop-color="#01C4FF" offset="100%"></stop>
        </linearGradient>
        <linearGradient x1="20.2810876%" y1="20.1019903%" x2="83.820166%" y2="83.6214476%" id="linearGradient-5">
            <stop stop-color="#28D781" offset="0%"></stop>
            <stop stop-color="#02F076" offset="100%"></stop>
        </linearGradient>
        <linearGradient x1="74.4881466%" y1="17.4301299%" x2="10.1079427%" y2="91.1838038%" id="linearGradient-6">
            <stop stop-color="#F2414E" offset="0%"></stop>
            <stop stop-color="#E02554" offset="100%"></stop>
        </linearGradient>
    </defs>
    <g id="Download" stroke="none" stroke-width="1" fill="none" fill-rule="evenodd">
        <g id="Download---Lightest" transform="translate(-391.000000, -677.000000)">
            <g id="Playstore" transform="translate(390.000000, 676.000000)">
                <path d="M1.17014122,5.85154227 L1.17014122,45.5406014 C1.17014122,48.1264599 3.26582904,50.2220025 5.85151491,50.2220025 L168.148485,50.2220025 C170.733562,50.2220025 172.829859,48.1258441 172.829859,45.5406014 L172.829859,5.85154227 C172.829859,3.26568383 170.734171,1.17014122 168.148485,1.17014122 L5.85151491,1.17014122 C3.2664377,1.17014122 1.17014122,3.26629958 1.17014122,5.85154227 Z" id="background" fill="#000000" fill-rule="nonzero"></path>
                <g id="get-it-on" transform="translate(53.358440, 8.659045)" fill="#FFFFFF">
                    <path d="M38.8486886,8.42501681 C36.5221845,8.42501681 34.6361802,6.53901256 34.6361802,4.21250841 C34.6361802,1.88600426 36.5221845,0 38.8486886,0 C41.1751928,0 43.061197,1.88600426 43.061197,4.21250841 C43.061197,6.53901256 41.1751928,8.42501681 38.8486886,8.42501681 Z M38.8486886,7.13786147 C40.4643165,7.13786147 41.7740417,5.82813629 41.7740417,4.21250841 C41.7740417,2.59688052 40.4643165,1.28715535 38.8486886,1.28715535 C37.2330608,1.28715535 35.9233356,2.59688052 35.9233356,4.21250841 C35.9233356,5.82813629 37.2330608,7.13786147 38.8486886,7.13786147 Z" id="o"></path>
                    <path d="M10.2972428,4.6805649 L10.2972428,7.25487559 L13.6906523,7.25487559 L13.6906523,8.19098857 L9.01008742,8.19098857 L9.01008742,7.72293208 L9.01008742,0.877605918 L9.01008742,0.351042367 L13.6906523,0.351042367 L13.6906523,1.28715535 L10.2972428,1.28715535 L10.2972428,3.74445192 L13.33961,3.74445192 L13.33961,4.6805649 L10.2972428,4.6805649 Z" id="e"></path>
                    <path d="M18.2542031,1.28715535 L18.2542031,8.19098857 L16.9670477,8.19098857 L16.9670477,1.28715535 L14.9778077,1.28715535 L14.9778077,0.351042367 L20.2434432,0.351042367 L20.2434432,1.28715535 L18.2542031,1.28715535 Z" id="t"></path>
                    <path d="M29.7215871,1.28715535 L29.7215871,8.19098857 L28.4344317,8.19098857 L28.4344317,1.28715535 L26.4451917,1.28715535 L26.4451917,0.351042367 L31.7108272,0.351042367 L31.7108272,1.28715535 L29.7215871,1.28715535 Z" id="t"></path>
                    <rect id="i" x="23.9878951" y="0.351042367" width="1.28715535" height="7.8399462"></rect>
                    <path d="M44.8749159,0.351042367 L44.1143241,0.351042367 L44.1143241,8.19098857 L45.4014795,8.19098857 L45.4014795,2.07200617 L49.1459314,8.19098857 L49.7895091,8.19098857 L50.4330868,8.19098857 L50.4330868,0.351042367 L49.1459314,0.351042367 L49.1459314,6.08758837 L45.6355077,0.351042367 L44.8749159,0.351042367 Z" id="n"></path>
                    <g id="g" transform="translate(0.000000, 0.117014)">
                        <path d="M7.01782639,1.14001345 C6.33188431,0.416577437 5.32845181,0 4.13480764,0 C1.85121644,0 0,1.84921465 0,4.13033653 C0,6.4114584 1.85121864,8.25740221 4.13480764,8.26067305 C6.45654793,8.28157253 8.39303525,6.64610305 8.00580594,3.80581592 C8.00580594,3.79196846 8.00574744,3.77814888 8.00563065,3.76435734 L6.97619439,3.76435734 C6.98457593,3.88293591 6.9874985,4.00496968 6.98471181,4.13033653 C6.98716522,6.15894772 5.81735494,7.11045275 4.16970053,7.11045275 C2.52204612,7.11045275 1.18635831,5.77620927 1.18635831,4.13033653 C1.18635831,2.48446378 2.52204612,1.1502203 4.16970053,1.1502203 C4.99399561,1.1502203 5.7083993,1.43184897 6.21139486,1.94557296 L7.01782639,1.14001345 Z" id="Oval-1"></path>
                    </g>
                </g>
                <g id="googleplay" transform="translate(52.773369, 22.466711)" fill="#FFFFFF">
                    <g id="big-P" transform="translate(73.016812, 0.585071)">
                        <path d="M0.585070612,4.11262723e-07 L7.2189398,0 C7.2189398,0 11.0378754,0.64974834 11.0378751,5.03509413 C11.0378748,9.42043991 7.2189398,10.0701883 7.2189398,10.0701883 L0.585070612,10.0701887 L0.585070612,4.11262723e-07 Z M1.87222596,2.43587278 L1.87222596,7.8399462 L6.37562048,7.8399462 C6.37562048,7.8399462 8.42501681,7.8399462 8.42501681,5.13790949 C8.42501681,2.43587278 6.37562048,2.43587278 6.37562048,2.43587278 L1.87222596,2.43587278 Z" id="Combined-Shape"></path>
                        <rect id="Rectangle-6" x="0" y="0" width="2.34028245" height="16.3819771"></rect>
                    </g>
                    <rect id="y" x="85.4203093" y="0.585070612" width="2.34028245" height="16.3819771"></rect>
                    <path d="M96.4346169,15.795752 C95.7900206,16.3275913 94.7594728,16.8281404 93.1318247,16.9297952 C89.4029711,17.162681 89.4010283,13.760015 89.4010283,13.5305578 C89.4010283,13.3011006 89.2171081,10.5261859 92.1833133,10.0850975 C94.2836784,9.77276355 95.7547597,10.293172 96.4346169,10.623601 L96.4346169,10.1422698 C96.2678972,9.50479698 95.7505249,8.33348526 94.1994643,8.33348526 C92.0685377,8.33348526 91.597957,9.48557157 91.597957,9.48557157 L89.6485977,8.33348526 C89.6485977,8.33348526 90.7394239,6.08473436 94.012516,6.08473436 C98.0822884,6.08473437 98.7751422,8.8918306 98.7751422,9.83725671 C98.7751422,9.8418586 98.7750609,9.84643073 98.7748993,9.85097328 L98.7748993,16.9617913 L96.4346169,16.9617913 L96.4346169,15.795752 Z M96.2674375,12.2868257 C96.2674375,12.2868257 91.7588514,11.0716044 91.6021279,13.6044344 C91.4454044,16.1372644 95.9274796,14.9210718 96.3279443,13.1255792 C96.3279443,12.5546212 96.2674375,12.2868257 96.2674375,12.2868257 Z" id="a"></path>
                    <path d="M103.16628,16.3455179 L100.983188,21.5305985 L103.32347,21.5305985 L109.655031,6.49245545 L107.314749,6.49245545 L104.336421,13.5663058 L101.33423,6.43577673 L98.9939475,6.43577673 L103.16628,16.3455179 Z" id="y"></path>
                    <path d="M67.7775457,10.2651407 L60.3759385,13.3240645 C60.3759385,13.3240645 60.8539615,15.0159505 63.0793079,15.0272903 C64.821837,15.0361697 65.8055047,13.4827863 65.8055047,13.4827863 L67.6833917,14.7545471 C67.6833917,14.7545471 66.1680398,17.2053332 63.0645163,17.2053332 C59.2507139,17.2053332 57.5709482,13.8704733 57.5709482,11.7047052 C57.5709482,9.61804358 58.9042502,6.08473436 62.8278515,6.08473436 C66.7514529,6.08473436 67.7775457,10.2651407 67.7775457,10.2651407 Z M64.9613906,9.39859221 C64.9613906,9.39859221 64.0301657,7.98175655 62.6019959,8.24305235 C59.5809638,8.79577589 59.961135,11.4394831 59.961135,11.4394831 L64.9613906,9.39859221 Z" id="e"></path>
                    <rect id="i" x="54.0605245" y="0.585070612" width="2.47587821" height="16.3475612"></rect>
                    <path d="M50.0984142,6.44001999 L52.3871224,6.45979196 L52.3871224,16.7746019 C52.3871224,19.4100076 50.81808,22.1919311 47.1241744,22.1919311 C43.4302688,22.1919311 42.2372733,18.9190841 42.2372733,18.9190841 L44.3392381,18.0350812 C44.3392381,18.0350812 44.9803239,20.0521346 47.2334044,20.0521319 C49.7991697,20.0521288 50.0986986,17.7178506 50.0986986,16.9188203 L50.0986986,15.7994245 C50.0986986,15.7994245 49.2109211,17.1888932 47.005842,17.1888963 C44.6150863,17.1888996 41.7740417,15.1405554 41.7740417,11.6485346 C41.7740417,8.15651392 44.4492503,6.15911724 47.0335051,6.08646141 C49.1034693,6.02826476 50.0984142,7.46020141 50.0984142,7.46020141 L50.0984142,6.44001999 Z M47.2012612,15.092804 C48.8702811,15.092804 50.223289,13.5639353 50.223289,11.6779801 C50.223289,9.79202495 48.8702811,8.26315621 47.2012612,8.26315621 C45.5322413,8.26315621 44.1792334,9.79202495 44.1792334,11.6779801 C44.1792334,13.5639353 45.5322413,15.092804 47.2012612,15.092804 Z" id="g"></path>
                    <path d="M35.1752989,17.201076 C32.0986719,17.201076 29.604573,14.7125982 29.604573,11.6429052 C29.604573,8.5732122 32.0986719,6.08473436 35.1752989,6.08473436 C38.2519259,6.08473436 40.7460249,8.5732122 40.7460249,11.6429052 C40.7460249,14.7125982 38.2519259,17.201076 35.1752989,17.201076 Z M35.138889,15.0214012 C36.8682349,15.0214012 38.2701467,13.508797 38.2701467,11.6429052 C38.2701467,9.77701337 36.8682349,8.26440919 35.138889,8.26440919 C33.4095431,8.26440919 32.0076312,9.77701337 32.0076312,11.6429052 C32.0076312,13.508797 33.4095431,15.0214012 35.138889,15.0214012 Z" id="o"></path>
                    <path d="M23.1228443,17.201076 C20.0462173,17.201076 17.5521184,14.7125982 17.5521184,11.6429052 C17.5521184,8.5732122 20.0462173,6.08473436 23.1228443,6.08473436 C26.1994713,6.08473436 28.6935703,8.5732122 28.6935703,11.6429052 C28.6935703,14.7125982 26.1994713,17.201076 23.1228443,17.201076 Z M23.0864344,15.0214012 C24.8157803,15.0214012 26.2176921,13.508797 26.2176921,11.6429052 C26.2176921,9.77701337 24.8157803,8.26440919 23.0864344,8.26440919 C21.3570885,8.26440919 19.9551766,9.77701337 19.9551766,11.6429052 C19.9551766,13.508797 21.3570885,15.0214012 23.0864344,15.0214012 Z" id="o"></path>
                    <g id="big-g">
                        <polygon id="Rectangle-1" points="8.73839369 7.84682938 16.0932084 7.84682938 16.0203884 10.1718159 8.73839369 10.1718159"></polygon>
                        <path d="M14.6458986,2.37636606 C13.2143673,0.868358601 11.1202473,0 8.62916377,0 C3.86340822,0 0,3.85470096 0,8.60971557 C0,13.3647302 3.86341281,17.2126131 8.62916377,17.2194311 C13.4745348,17.2629963 17.5158997,13.8538486 16.7077689,7.93325009 C16.7077689,7.90438496 16.7076468,7.87557794 16.7074031,7.84682938 L14.5590144,7.84682938 C14.5765063,8.09400724 14.5826056,8.3483875 14.5767899,8.60971557 C14.58191,12.8383699 12.1405668,14.8217888 8.70198372,14.8217888 C5.2634006,14.8217888 2.47587821,12.0405489 2.47587821,8.60971557 C2.47587821,5.17888225 5.2634006,2.39764231 8.70198372,2.39764231 C10.4222517,2.39764231 11.9131812,2.98469926 12.962911,4.05556054 L14.6458986,2.37636606 Z" id="Oval-1"></path>
                    </g>
                </g>
                <g id="logo_play" transform="translate(12.754539, 9.127102)">
                    <mask id="mask-3" fill="white">
                        <use xlink:href="#path-2"></use>
                    </mask>
                    <use id="yellow" fill="url(#linearGradient-1)" xlink:href="#path-2"></use>
                    <polygon id="blue" fill="url(#linearGradient-4)" mask="url(#mask-3)" points="2.77555756e-17 -0.0115388931 16.3570349 16.2458593 -0.211275499 33.1458297"></polygon>
                    <polygon id="green" fill="url(#linearGradient-5)" mask="url(#mask-3)" points="-3.36361429 -3.35835864 16.3550937 16.2506146 22.2176953 10.65779"></polygon>
                    <polygon id="red" fill="url(#linearGradient-6)" mask="url(#mask-3)" points="16.3577798 16.2468735 25.3328352 25.293309 -1.47928965 34.3397445"></polygon>
                </g>
            </g>
        </g>
    </g>
</svg>
